. 
  
http://www.torrentday.com/        :     The Hottest Private Tracker On The Net!!! 
http://www.torrentday.com          :     Once you visit it, You can't stop yourself visiting Torrentday everyday ;)


               www . TorrentDay . Com 

(((((((((((((= Enjoy No RAR releases =))))))))))))))))))))


...................................NFO:....................................

.[img]http://img18.imageshack.us/img18/5449/34348448.jpg[/img]

Love And Other Drugs 2010 TS XViD AC3 HQ Hive-CM8




[b]Thx Hive

CM8 Doing It Right The First Time :D

VideoSource:
Love.And.Other.Drugs.2011.TRUEFRENCH.TS.LD.XviD.AC3-SERENiTY
AudioSource:
synced RX Audio thx for syncing
and thx to Imagine for the line in the first place

Video: 720x384 @bitrate 1600 2pass
Audio: AC3 2.0 Stereo @256
Sample: yes included

Encode:
serenity video was very nice, just added bit brightness,sharpness,chroma,denoise and corrected rgb colours.
still cleaned up the line, for hiss,hum and noise.
enjoy[/b]
 
http://www.imdb.com/title/tt0758752/


General
Complete name                    : Love.And.Other.Drugs.2010.TS.XViD.AC3.HQ.Hive-CM8.avi
Format                           : AVI
Format/Info                      : Audio Video Interleave
File size                        : 1.40 GiB
Duration                         : 1h 47mn
Overall bit rate                 : 1 865 Kbps
Writing application              : Nandub v1.0rc2
Writing library                  : Nandub build 1853/release

Video
ID                               : 0
Format                           : MPEG-4 Visual
Format profile                   : Advanced Simple@L5
Format settings, BVOP            : Yes
Format settings, QPel            : Yes
Format settings, GMC             : No warppoints
Format settings, Matrix          : Default (H.263)
Muxing mode                      : Packed bitstream
Codec ID                         : XVID
Codec ID/Hint                    : XviD
Duration                         : 1h 47mn
Bit rate                         : 1 600 Kbps
Width                            : 720 pixels
Height                           : 384 pixels
Display aspect ratio             : 1.875
Frame rate                       : 25.000 fps
Color space                      : YUV
Chroma subsampling               : 4:2:0
Bit depth                        : 8 bits
Scan type                        : Progressive
Bits/(Pixel*Frame)               : 0.231
Stream size                      : 1.20 GiB (86%)
Writing library                  : XviD 1.2.1 (UTC 2008-12-04)

Audio
ID                               : 1
Format                           : AC-3
Format/Info                      : Audio Coding 3
Mode extension                   : CM (complete main)
Codec ID                         : 2000
Duration                         : 1h 47mn
Bit rate mode                    : Constant
Bit rate                         : 256 Kbps
Channel(s)                       : 2 channels
Channel positions                : Front: L R
Sampling rate                    : 48.0 KHz
Bit depth                        : 16 bits
Video delay                      : 24ms
Stream size                      : 196 MiB (14%)
Alignment                        : Split accross interleaves
Interleave, duration             : 40 ms (1.00 video frame)
Interleave, preload duration     : 500 ms



Jake Gyllenhaal ... Jamie Randall
Anne Hathaway ... Maggie Murdock
Oliver Platt ... Bruce Winston
Hank Azaria ... Dr. Stan Knight
Josh Gad ... Josh Randall
Gabriel Macht ... Trey Hannigan
Judy Greer ... Cindy  
George Segal ... Dr. James Randall
Jill Clayburgh ... Nancy Randall  


Maggie (Hathaway) is an alluring free spirit who won't let anyone - or anything - tie her down. 
But she meets her match in Jamie (Gyllenhaal), whose relentless and nearly infallible charm serve 
him well with the ladies and in the cutthroat world of pharmaceutical sales. Maggie and Jamie's 
evolving relationship takes them both by surprise, as they find themselves under the influence 
of the ultimate drug: love.



[img]http://img233.imageshack.us/img233/557/lollololoolololo.png[/img]
[img]http://img151.imageshack.us/img151/28/lolloloolololo.png[/img]
[img]http://img109.imageshack.us/img109/8302/lolloolololo.png[/img]
[img]http://img502.imageshack.us/img502/5254/loloi.png[/img]
[img]http://img502.imageshack.us/img502/2377/lololooh.png[/img]
[img]http://img138.imageshack.us/img138/6905/lolololoi.png[/img]
[img]http://img508.imageshack.us/img508/6375/lololololod.png[/img]
[img]http://img97.imageshack.us/img97/3350/lollolloololoolololo.png[/img]
[img]http://img834.imageshack.us/img834/4154/lollololloololoolololo.png[/img]
[img]http://img638.imageshack.us/img638/7286/lollolololoolololo.png[/img]
[img]http://img443.imageshack.us/img443/6661/lolollololloololoololol.png[/img]
[img]http://img535.imageshack.us/img535/1074/45904798.png[/img]





Greetz

iNK,LUSi,,MAGNET,CLASSiFiED,THC,LEGi0N,IMAGiNE,ViSiON,WBZ,FLAWL3SS,NOVA
Rapeseed,D2U,SAFC,goldadvance,MEMORY100,KaN1vE,Unevano,Pinnz,Wayne,Mr Hive
and all P2P groups 
Great Work Guys :D